<svg width="54" height="48" viewBox="0 0 54 48" fill="none" xmlns="http://www.w3.org/2000/svg">
<g filter="url(#filter0_d_2149_2334)">
<path d="M49.5 24C49.5002 26.0768 48.8844 28.1071 47.7307 29.8339C46.5769 31.5608 44.937 32.9067 43.0183 33.7015C41.0996 34.4963 38.9883 34.7042 36.9514 34.299C34.9145 33.8938 33.0435 32.8936 31.575 31.425L31.5131 31.3594L20.2725 18.6657C19.2201 17.6256 17.8836 16.92 16.4312 16.6378C14.9788 16.3555 13.4753 16.5092 12.11 17.0794C10.7447 17.6496 9.57855 18.611 8.75833 19.8424C7.93811 21.0739 7.50047 22.5204 7.50047 24C7.50047 25.4796 7.93811 26.9262 8.75833 28.1576C9.57855 29.3891 10.7447 30.3504 12.11 30.9207C13.4753 31.4909 14.9788 31.6446 16.4312 31.3623C17.8836 31.08 19.2201 30.3745 20.2725 29.3344L21.87 27.5307C22.0006 27.3829 22.1591 27.2624 22.3363 27.1759C22.5135 27.0893 22.706 27.0386 22.9029 27.0265C23.0997 27.0144 23.297 27.0412 23.4835 27.1053C23.6699 27.1695 23.842 27.2697 23.9897 27.4003C24.1374 27.531 24.258 27.6894 24.3445 27.8666C24.431 28.0438 24.4818 28.2364 24.4939 28.4332C24.506 28.63 24.4792 28.8273 24.415 29.0138C24.3509 29.2003 24.2506 29.3723 24.12 29.52L22.4906 31.3594L22.4288 31.425C20.9603 32.8934 19.0893 33.8933 17.0526 34.2984C15.0158 34.7034 12.9047 34.4954 10.9861 33.7007C9.06753 32.9059 7.42772 31.5601 6.27401 29.8334C5.1203 28.1067 4.50452 26.0767 4.50452 24C4.50452 21.9234 5.1203 19.8933 6.27401 18.1667C7.42772 16.44 9.06753 15.0941 10.9861 14.2994C12.9047 13.5046 15.0158 13.2966 17.0526 13.7017C19.0893 14.1068 20.9603 15.1067 22.4288 16.575L22.4906 16.6407L33.7313 29.3344C34.7836 30.3745 36.1201 31.08 37.5726 31.3623C39.025 31.6446 40.5285 31.4909 41.8938 30.9207C43.2591 30.3504 44.4252 29.3891 45.2454 28.1576C46.0657 26.9262 46.5033 25.4796 46.5033 24C46.5033 22.5204 46.0657 21.0739 45.2454 19.8424C44.4252 18.611 43.2591 17.6496 41.8938 17.0794C40.5285 16.5092 39.025 16.3555 37.5726 16.6378C36.1201 16.92 34.7836 17.6256 33.7313 18.6657L32.1338 20.4694C31.8699 20.7678 31.4984 20.9491 31.1009 20.9736C30.7034 20.998 30.3124 20.8635 30.0141 20.5997C29.7157 20.3359 29.5344 19.9644 29.5099 19.5669C29.4855 19.1693 29.6199 18.7784 29.8838 18.48L31.5131 16.6407L31.575 16.575C33.0435 15.1064 34.9145 14.1063 36.9514 13.7011C38.9883 13.2959 41.0996 13.5038 43.0183 14.2986C44.937 15.0934 46.5769 16.4393 47.7307 18.1661C48.8844 19.893 49.5002 21.9232 49.5 24Z" fill="#82BC4F"/>
</g>
<defs>
<filter id="filter0_d_2149_2334" x="-1" y="0" width="56" height="56" filterUnits="userSpaceOnUse" color-interpolation-filters="sRGB">
<feFlood flood-opacity="0" result="BackgroundImageFix"/>
<feColorMatrix in="SourceAlpha" type="matrix" values="0 0 0 0 0 0 0 0 0 0 0 0 0 0 0 0 0 0 127 0" result="hardAlpha"/>
<feOffset dy="4"/>
<feGaussianBlur stdDeviation="2"/>
<feComposite in2="hardAlpha" operator="out"/>
<feColorMatrix type="matrix" values="0 0 0 0 0 0 0 0 0 0 0 0 0 0 0 0 0 0 0.25 0"/>
<feBlend mode="normal" in2="BackgroundImageFix" result="effect1_dropShadow_2149_2334"/>
<feBlend mode="normal" in="SourceGraphic" in2="effect1_dropShadow_2149_2334" result="shape"/>
</filter>
</defs>
</svg>
